<svg viewBox="0 0 430 470" xmlns="http://www.w3.org/2000/svg">

<g transform="translate(0.000000,470.000000) scale(0.100000,-0.100000)"
fill="#000000" stroke="none">
    <path d="M1982 4329 c-61 -10 -99 -28 -161 -76 -25 -18 -56 -36 -70 -40 -114
-27 -242 -131 -301 -245 -32 -62 -37 -67 -86 -82 -29 -9 -63 -25 -76 -36 -22
-18 -22 -19 -3 -20 14 0 7 -9 -26 -29 -108 -68 -142 -184 -99 -339 11 -39 20
-84 20 -98 0 -44 -44 -92 -95 -105 -25 -6 -45 -15 -45 -20 0 -17 59 -40 86
-33 24 6 25 5 12 -15 -19 -33 -67 -58 -123 -66 l-50 -7 29 -25 c23 -20 37 -24
63 -20 18 3 33 4 33 1 0 -3 -10 -34 -21 -70 -20 -63 -21 -72 -9 -176 13 -110
13 -110 31 -87 22 29 24 20 5 -26 -15 -36 -8 -46 14 -20 17 21 24 12 10 -14
-6 -12 -29 -30 -50 -41 -37 -19 -40 -24 -40 -63 0 -26 -10 -58 -25 -86 -31
-54 -31 -57 1 -36 26 16 26 16 19 -7 -7 -22 -6 -21 24 6 42 40 49 27 16 -28
-38 -64 -79 -91 -137 -90 -27 0 -48 0 -48 -1 0 -9 56 -73 77 -87 79 -51 196
12 238 129 9 26 22 61 28 77 l11 29 27 -33 28 -33 7 27 c3 15 4 43 1 62 -5 29
-3 35 8 30 19 -7 19 -10 -6 97 -21 87 -21 92 -4 153 20 74 45 105 45 56 0 -49
20 -49 21 0 l1 43 12 -40 c7 -22 9 -44 4 -50 -13 -14 -10 -25 8 -25 9 0 30
-10 47 -22 24 -17 29 -18 24 -6 -9 24 91 34 293 29 342 -8 325 -9 328 17 4 23
-12 30 -24 11 -10 -16 -83 -5 -179 26 -165 53 -281 54 -386 3 -52 -25 -66 -14
-49 36 15 46 41 63 115 77 33 6 100 30 150 53 70 33 103 56 148 102 64 67 117
104 117 82 0 -18 -11 -32 -35 -47 -17 -10 -12 -11 30 -6 56 8 88 22 135 62
l33 27 -17 -32 c-29 -56 -101 -89 -251 -115 -28 -5 50 -27 95 -27 45 0 150 30
232 66 92 41 298 165 298 180 0 7 12 15 28 19 40 9 133 75 158 113 l22 33 12
-58 c6 -32 18 -75 26 -97 18 -46 12 -60 -7 -17 -17 37 -29 23 -29 -35 0 -59
21 -120 68 -199 28 -46 42 -81 42 -104 l1 -36 21 25 21 25 -6 -25 c-6 -23 -3
-22 22 10 l29 34 -10 -54 c-8 -45 -28 -98 -66 -172 -6 -13 38 -9 67 6 15 8 33
22 41 30 10 13 16 14 27 4 11 -9 13 -28 7 -90 -4 -54 -2 -93 7 -126 11 -40 14
-44 19 -23 8 34 21 34 48 1 l23 -29 -33 -83 c-19 -46 -39 -82 -45 -81 -6 1
-18 -17 -27 -40 -17 -45 -106 -142 -106 -117 0 8 -8 1 -19 -15 -18 -31 -39
-47 -107 -86 -32 -17 -47 -20 -98 -14 -34 4 -81 16 -105 26 -26 11 -48 16 -55
10 -6 -4 -30 -11 -54 -15 -38 -6 -47 -3 -89 29 -25 19 -50 35 -54 35 -5 0 -9
6 -9 14 0 27 -32 39 -113 43 -86 4 -162 -12 -162 -34 0 -6 -19 -25 -42 -42
-22 -16 -44 -35 -48 -41 -8 -14 -106 -3 -116 12 -4 6 -24 2 -52 -10 -27 -12
-81 -23 -129 -27 -46 -4 -93 -8 -105 -10 -15 -2 -35 11 -70 48 -56 60 -138
181 -155 228 -11 31 -12 30 -35 -67 -28 -119 -32 -129 -95 -265 -54 -119 -65
-161 -49 -202 11 -27 11 -27 37 -10 27 17 27 17 19 -7 -4 -14 -14 -37 -21 -52
-8 -15 -14 -46 -14 -69 l0 -41 20 23 c30 37 24 3 -11 -60 -45 -79 -81 -181
-74 -208 7 -29 23 -30 34 -1 5 13 19 32 31 43 l22 20 -8 -40 c-10 -51 -8 -135
6 -183 5 -20 10 -52 10 -69 0 -34 14 -44 24 -18 8 23 23 18 30 -10 4 -16 11
-22 21 -19 11 4 15 -1 15 -17 0 -38 32 -142 56 -179 32 -50 80 -100 98 -100
23 0 28 50 12 120 -8 35 -13 67 -10 69 3 3 14 -5 24 -19 l20 -25 0 40 1 40 34
-39 c26 -29 36 -52 41 -89 l7 -50 24 28 c21 23 26 26 37 14 44 -49 33 -120
-28 -176 -19 -17 -31 -34 -28 -37 24 -24 252 58 252 90 0 12 21 52 38 74 2 3
16 -9 30 -26 37 -44 127 -112 117 -88 -14 30 -18 134 -6 134 6 0 20 -18 31
-41 33 -63 200 -222 217 -206 3 4 -2 18 -11 31 -22 35 -6 40 62 21 70 -21 213
-23 265 -5 37 14 50 30 22 30 -8 0 -19 9 -25 20 -6 11 -26 22 -48 26 -39 7
-116 46 -128 66 -11 18 -13 100 -2 145 20 84 126 168 185 147 14 -5 31 -17 37
-27 9 -16 5 -24 -28 -53 -34 -29 -36 -34 -18 -34 12 0 42 10 67 22 61 30 75
15 36 -39 -41 -57 -94 -87 -153 -87 -48 0 -49 0 -22 -14 45 -23 142 -12 186
21 33 26 36 26 31 8 -9 -36 23 -24 56 21 l31 42 0 -40 c0 -73 31 -143 62 -144
3 0 2 16 -3 36 -14 48 12 130 58 184 38 44 53 50 53 20 0 -11 2 -20 5 -20 16
0 98 45 102 57 8 20 19 16 32 -13 16 -37 36 -25 33 19 -3 30 3 43 39 81 45 50
64 58 54 25 -7 -21 -7 -21 25 -3 47 28 97 87 110 131 22 68 24 221 5 293 -9
36 -19 81 -21 100 -12 111 -45 198 -103 275 l-40 52 37 0 c20 -1 50 2 66 6 27
8 27 9 11 27 -16 18 -15 19 23 29 41 11 92 45 92 62 0 5 -15 9 -32 9 -79 0
-189 84 -239 181 -20 40 -43 159 -30 159 3 0 22 -10 41 -22 47 -29 133 -31
174 -3 l30 20 -45 8 c-57 12 -93 38 -123 90 -24 42 -49 117 -41 125 2 2 14 -3
27 -12 31 -22 45 -20 17 3 l-23 18 49 -4 c36 -3 60 1 84 14 47 24 51 43 11 43
-55 0 -108 35 -131 88 -12 26 -27 60 -35 76 -13 26 -13 28 3 21 33 -12 72 -17
89 -11 16 6 16 8 0 25 -16 17 -15 19 11 36 15 10 23 20 17 22 -6 2 4 19 22 37
24 24 34 43 34 65 l0 32 -29 -22 c-15 -11 -43 -21 -61 -22 -27 -2 -37 3 -49
25 -14 25 -13 30 22 97 42 80 48 139 19 182 -70 105 -82 126 -82 146 0 13 5
23 10 23 6 0 10 -7 10 -15 0 -27 17 -15 24 16 13 66 7 115 -20 154 -14 21 -34
60 -45 87 -11 27 -30 66 -44 86 -26 38 -26 54 0 32 23 -19 29 -6 12 27 -21 38
-83 96 -132 122 -23 12 -32 21 -22 21 30 0 -40 89 -87 111 -35 16 -37 18 -15
21 20 3 16 7 -31 30 -141 70 -353 47 -452 -50 -21 -20 -38 -31 -38 -25 0 20
-51 73 -89 93 -46 23 -139 32 -209 19z m213 -2408 c3 -2 13 3 22 11 19 17 63
8 63 -11 0 -6 9 -15 20 -21 18 -10 19 -8 14 20 -8 39 4 39 17 0 10 -28 29 -41
29 -20 0 6 5 10 10 10 19 0 10 -16 -21 -39 -22 -17 -33 -20 -39 -12 -5 9 -10
8 -19 -3 -20 -24 -136 -96 -155 -96 -9 0 -26 16 -37 35 l-21 35 -20 -25 c-33
-42 -71 -31 -150 44 -21 19 -38 41 -38 49 0 12 3 12 15 2 13 -11 17 -8 26 20
13 35 30 24 22 -14 -4 -19 -3 -19 20 5 35 39 62 45 81 18 l15 -22 6 25 c8 30
50 36 60 9 6 -14 7 -14 16 2 6 9 14 15 19 12 5 -3 12 0 16 7 5 7 10 3 16 -12
5 -14 11 -26 13 -29z"/>
    <path d="M2488 2997 c-186 -145 -236 -178 -262 -171 -19 4 -24 1 -28 -20 -11
-56 41 -61 111 -11 26 19 51 35 55 35 4 0 54 27 112 60 160 90 184 90 286 -8
l61 -57 -6 32 c-4 18 -15 52 -25 75 -11 24 -22 56 -26 71 -10 41 -59 67 -128
67 -55 0 -59 -2 -150 -73z"/>
</g>
</svg>
